<svg xmlns="http://www.w3.org/2000/svg" width="1127" height="830" fill="none"><g fill="#44B2AB" opacity=".3"><path d="M929.311 62.038c-6.011 15.259-9.396 31.026-10.365 47.354-.233.01-.42.026-.606.026-13.608.003-27.217.003-40.819 0-.174 0-.347-.023-.521-.029v-1.164c.114-1.073.237-2.143.338-3.218.511-5.582 1.46-11.082 2.773-16.528 2.155-8.958 5.307-17.552 9.321-25.838.23-.48.498-.612 1.006-.612 12.716.015 25.432.012 38.147.012zM928.043 167.825h-.672c-12.621 0-25.242-.003-37.863.016-.499 0-.726-.161-.941-.609-4.471-9.292-7.626-19.017-9.563-29.139-.934-4.872-1.584-9.794-1.893-14.751-.013-.164-.07-.331-.108-.501v-1.158c.208-.019.42-.051.631-.051h40.59c.751 0 .713.003.766.754.256 3.367.48 6.743.802 10.1.514 5.348 1.423 10.633 2.578 15.868a143 143 0 0 0 5.483 18.862c.06.183.111.366.19.609M1090.12 180.035c-.14.234-.23.407-.34.575-3.21 5.051-6.98 9.674-10.92 14.161-4.82 5.487-10.19 10.349-16 14.75a115 115 0 0 1-37.51 18.796c-5.27 1.521-10.62 2.638-16.04 3.421-.53.075-1.06.176-1.58.265h-.93c-.27-.174-.54-.347-.89-.568.38-.272.69-.505 1.02-.723 11.81-8.09 21.96-17.884 30.39-29.473a139.4 139.4 0 0 0 12.41-20.607c.21-.445.46-.6.96-.597 12.91.013 25.82.01 38.73.01h.7zM1051.56 109.364h-54.13V62.067c.218-.01.423-.026.625-.026 13.875 0 27.755.004 41.635-.012.46-.004.67.145.85.561a131 131 0 0 1 8.61 27.72c.96 4.966 1.68 9.967 2.08 15.009.11 1.328.22 2.653.33 4.045M1051.24 121.985c-.06 1.12-.07 2.231-.16 3.338-.24 2.635-.43 5.276-.8 7.895-.51 3.622-1.06 7.251-1.78 10.841-1.6 7.917-3.98 15.603-7.02 23.087-.2.499-.42.698-.99.698-14.21-.022-28.41-.022-42.621-.022h-.767v-45.837zM985.225 62.345v47.37h-52.863c.079-1.203.114-2.376.234-3.544.271-2.647.486-5.313.902-7.939.647-4.013 1.341-8.026 2.199-12.002 1.736-8.027 4.351-15.786 7.636-23.314.199-.451.435-.58.899-.58 13.439.015 26.87.012 40.309.012zM985.279 122.614c-.016 14.848-.013 29.697-.013 44.539v.672h-.71c-13.845 0-27.687-.003-41.526.016-.502 0-.729-.158-.928-.621-3.196-7.718-5.657-15.673-7.197-23.87-.792-4.209-1.398-8.456-1.931-12.7-.353-2.773-.426-5.582-.619-8.377-.006-.073.01-.152.019-.297.206-.012.407-.025.613-.025 17.208 0 34.411.003 51.617-.016.555-.003.675.155.675.679M1108.96 109.699h-44.35c-.97-16.394-4.3-32.269-10.34-47.66h.69c13.55 0 27.1.003 40.65-.013.49 0 .74.133.97.578 4.75 9.425 8.15 19.31 10.22 29.656 1.1 5.5 1.79 11.044 2.16 16.632.02.255 0 .508 0 .807M1109 121.636c-.05 1.069-.08 2.088-.15 3.098-.29 4.01-.76 7.995-1.46 11.949-1.63 9.21-4.39 18.076-8.15 26.634-.6 1.378-1.26 2.732-1.87 4.098-.14.313-.32.423-.66.423-13.59-.013-27.18-.013-40.76-.013-.13 0-.26-.019-.44-.028.5-1.42.98-2.799 1.46-4.178 2.4-7.055 4.21-14.268 5.49-21.604.93-5.329 1.59-10.693 1.9-16.088.08-1.269.16-2.55.21-3.818.01-.341.11-.508.46-.473.14.015.28.003.42.003H1109zM1088.9 49.963l-.09.183h-.56c-12.94 0-25.87-.003-38.8.007-.46 0-.71-.117-.93-.55-5.23-10.317-11.57-19.89-19.27-28.536-4.47-5.026-9.45-9.516-14.77-13.62-2.65-2.04-5.39-3.945-8.09-5.904a16 16 0 0 1-.46-.338l.54-.369c-.08-.243-.15-.499-.26-.836 13.82 1.606 26.91 5.455 39.23 11.775 17.71 9.065 32.39 21.598 43.46 38.188M977.71 231.464c-.483.086-.814.221-1.123.183-4.269-.549-8.482-1.397-12.647-2.457a113.4 113.4 0 0 1-22.516-8.343 115 115 0 0 1-22.948-15.06c-4.988-4.206-9.63-8.762-13.801-13.795-3.13-3.786-5.982-7.774-8.607-11.927-.054-.094-.098-.195-.183-.369h.64c12.044 0 24.081.003 36.125-.016.486 0 .703.174.908.584 3.79 7.607 8.169 14.849 13.278 21.642 4.67 6.206 9.91 11.905 15.562 17.228 4.679 4.408 9.655 8.437 14.977 12.043.064.044.117.108.335.287M977.227 1.152c-1.644 1.206-3.591 2.575-5.471 4.02-6.355 4.869-12.104 10.387-17.499 16.294-7.261 7.942-13.398 16.663-18.37 26.201-.313.603-.59 1.221-.937 1.796a.8.8 0 0 1-.562.35c-.653.04-1.313.016-1.972.016h-35.314c19.677-27.78 46.099-44.48 79.718-49.582-.073.154-.151.303-.227.457.23.158.467.328.634.448M1035.41 180.071a126.5 126.5 0 0 1-17.88 24.188c-6.14 6.515-12.84 12.375-20.418 17.325v-41.513zM985.21 180.083v40.709c-15.552-10.712-27.662-24.295-36.74-40.709zM1034.2 49.79h-36.764V11.002c7.584 4.973 14.474 10.69 20.634 17.275 6.13 6.566 11.43 13.767 16.13 21.513M985.222 12.213v37.898H949.93c8.942-15.3 20.396-28.116 35.292-37.898"/></g><g fill="#44B2AB" opacity=".1"><path d="M260.613 259.637c-15.468 39.265-24.18 79.837-26.672 121.854-.601.025-1.08.065-1.559.065-35.019.008-70.037.008-105.04 0-.446 0-.893-.057-1.339-.073v-2.996c.292-2.76.609-5.513.868-8.282 1.316-14.363 3.76-28.515 7.137-42.528 5.546-23.051 13.657-45.168 23.985-66.49.593-1.234 1.283-1.575 2.59-1.575 32.721.041 65.442.033 98.162.033zM257.349 531.854h-1.73c-32.477 0-64.954-.008-97.431.041-1.283 0-1.868-.414-2.42-1.567-11.505-23.912-19.624-48.935-24.61-74.982-2.403-12.536-4.075-25.203-4.871-37.958-.033-.422-.179-.852-.276-1.291v-2.98c.535-.048 1.08-.13 1.624-.13h104.447c1.932 0 1.834.009 1.972 1.941.658 8.663 1.235 17.351 2.063 25.99 1.323 13.762 3.662 27.362 6.633 40.832a369 369 0 0 0 14.111 48.537c.155.471.285.942.488 1.567M674.405 563.276c-.341.6-.593 1.047-.861 1.477-8.257 12.999-17.96 24.894-28.109 36.44-12.39 14.119-26.225 26.631-41.173 37.958a295.5 295.5 0 0 1-96.506 48.366c-13.559 3.914-27.33 6.788-41.295 8.802-1.356.195-2.712.454-4.06.682h-2.395c-.698-.447-1.38-.893-2.297-1.462.982-.698 1.794-1.299 2.63-1.859 30.407-20.818 56.527-46.02 78.197-75.843a357.3 357.3 0 0 0 31.95-53.027c.544-1.145 1.177-1.543 2.46-1.534 33.224.032 66.448.024 99.665.024h1.794zM575.187 381.418H435.9V259.71c.56-.025 1.088-.065 1.607-.065 35.709 0 71.426.008 107.135-.033 1.193-.008 1.729.374 2.192 1.446 10.044 22.945 17.392 46.734 22.158 71.328 2.468 12.78 4.319 25.649 5.358 38.623.268 3.419.552 6.829.837 10.409M574.359 413.895c-.138 2.883-.162 5.741-.414 8.591-.617 6.779-1.088 13.575-2.038 20.314-1.315 9.321-2.736 18.658-4.595 27.898-4.108 20.371-10.247 40.15-18.057 59.409-.52 1.283-1.088 1.794-2.55 1.794-36.561-.056-73.114-.056-109.676-.056h-1.973v-117.95zM404.495 260.425V382.32H268.464c.203-3.093.292-6.113.601-9.118.698-6.812 1.25-13.673 2.322-20.428 1.664-10.328 3.451-20.655 5.659-30.886 4.466-20.655 11.196-40.621 19.649-59.993.511-1.161 1.12-1.494 2.314-1.494 34.58.04 69.144.032 103.724.032zM404.631 415.514c-.04 38.209-.032 76.419-.032 114.612v1.729h-1.827c-35.627 0-71.247-.008-106.858.041-1.291 0-1.876-.406-2.387-1.599-8.225-19.86-14.558-40.329-18.52-61.423-2.038-10.831-3.597-21.76-4.969-32.68-.91-7.137-1.097-14.363-1.592-21.557-.016-.187.025-.39.049-.763a25 25 0 0 1 1.575-.065c44.283 0 88.549.008 132.824-.041 1.429-.008 1.737.398 1.737 1.746M722.903 382.281H608.761c-2.484-42.188-11.066-83.037-26.606-122.643h1.786c34.856 0 69.728.008 104.601-.032 1.267 0 1.908.341 2.493 1.486 12.219 24.252 20.98 49.69 26.314 76.313 2.826 14.152 4.596 28.418 5.546 42.797.048.658.008 1.307.008 2.079M723 412.996c-.13 2.752-.195 5.375-.39 7.973-.747 10.32-1.957 20.574-3.751 30.748-4.198 23.7-11.294 46.515-20.972 68.535-1.551 3.548-3.248 7.031-4.823 10.547-.357.804-.812 1.088-1.697 1.088-34.954-.033-69.923-.033-104.877-.033-.341 0-.666-.048-1.137-.073 1.283-3.653 2.533-7.201 3.751-10.75 6.179-18.154 10.84-36.715 14.128-55.593 2.395-13.713 4.092-27.516 4.888-41.4.203-3.264.414-6.56.552-9.824.032-.877.276-1.308 1.193-1.218.358.04.707.008 1.056.008H723zM671.272 228.565c-.065.155-.146.309-.219.471H669.6c-33.282 0-66.554-.008-99.836.017-1.177 0-1.835-.301-2.403-1.413-13.454-26.55-29.773-51.184-49.568-73.431-11.513-12.934-24.326-24.488-38.023-35.051-6.804-5.245-13.868-10.15-20.826-15.192a34 34 0 0 1-1.161-.868c.511-.35.901-.617 1.38-.95-.195-.626-.381-1.283-.658-2.152 35.539 4.133 69.226 14.038 100.94 30.301 45.557 23.327 83.344 55.577 111.827 98.268M385.155 695.615c-1.242.22-2.095.569-2.891.471-10.985-1.413-21.824-3.597-32.542-6.325-20.079-5.115-39.403-12.26-57.939-21.467-21.232-10.555-40.905-23.481-59.052-38.754-12.837-10.823-24.78-22.547-35.514-35.497-8.054-9.744-15.394-20.006-22.149-30.691-.138-.244-.252-.504-.471-.95h1.648c30.991 0 61.966.008 92.958-.041 1.25 0 1.81.447 2.338 1.502 9.752 19.576 21.021 38.21 34.166 55.691 12.017 15.97 25.503 30.634 40.045 44.331 12.041 11.343 24.845 21.711 38.542 30.991.162.114.301.277.861.739M383.912 102.962c-4.23 3.101-9.239 6.625-14.079 10.344-16.352 12.528-31.145 26.729-45.029 41.928-18.683 20.436-34.475 42.878-47.271 67.423-.804 1.551-1.518 3.142-2.411 4.62-.252.446-.934.868-1.446.901-1.68.105-3.377.041-5.074.041h-90.871c50.632-71.483 118.623-114.458 205.134-127.587-.187.397-.39.779-.584 1.177.592.406 1.201.844 1.631 1.153M533.635 563.365c-12.95 22.701-28.247 43.389-46.004 62.242-15.808 16.767-33.038 31.844-52.548 44.583V563.365zM404.454 563.398v104.755c-40.02-27.565-71.182-62.518-94.541-104.755zM530.522 228.118h-94.606v-99.811c19.527 12.796 37.243 27.508 53.084 44.453 15.792 16.897 29.424 35.425 41.522 55.358M404.486 131.424v97.522h-90.815c23.01-39.371 52.483-72.352 90.815-97.522"/></g><g opacity=".9"><path stroke="#44B2AB" stroke-dasharray="8 8" stroke-width="3" d="M127.194 84.54C384 169 334 442.5 759.194 350.538" opacity=".2"/><path fill="#44B2AB" d="m107.599 61.392 11.791 32.381-24.753-19.33L0 40.123z"/><path fill="#A2E4DE" d="m91.46 81.987 27.93 11.787-24.753-19.33z"/><path fill="#A2E4DE" d="M94.637 74.444 0 40.122l77.623 75.749zM107.599 61.392 146.926 36 0 40.122z"/></g><path fill="#C7C7C7" d="M1127 312.779H530v462.246h597z"/><path fill="#EBEBEB" d="M1127 775.025H530V298h467.094L1127 414.017z"/><path fill="#44B2AB" d="M700.878 380.64v47.639h-10.671v-67.646h8.383l38.682 48.78v-48.686h10.767v67.552h-8.86zM809.682 418.846v9.433h-46.399v-67.646h45.54v9.431h-34.871v19.246h30.202v8.86h-30.202v20.674zM844.744 360.919h10.099l8.289 22.962 8.385-22.962h10.004l-11.529 30.107 10.099 24.866 21.057-55.259h11.718l-27.915 67.646h-9.148l-12.575-30.298-12.673 30.298h-9.146l-27.917-67.646h11.624l21.15 55.259 10.1-24.866zM959.266 376.544q-.956-1.046-2.762-2.238-1.812-1.191-4.24-2.241-2.432-1.046-5.337-1.715a26.7 26.7 0 0 0-5.955-.668q-6.765 0-9.959 2.478-3.192 2.478-3.191 6.86 0 2.48 1 4.049 1.001 1.574 3.096 2.762 2.096 1.193 5.24 2.097 3.144.906 7.337 1.952 5.145 1.24 9.288 2.762 4.145 1.525 7.003 3.715a15.15 15.15 0 0 1 4.432 5.382q1.572 3.192 1.571 7.766 0 5.145-1.953 8.86-1.953 3.716-5.334 6.05-3.385 2.335-7.862 3.43c-2.988.729-6.193 1.096-9.625 1.096q-7.715.002-14.91-2.335-7.194-2.332-13.005-6.811l4.861-9.146q1.236 1.24 3.572 2.762 2.335 1.523 5.432 2.81 3.094 1.286 6.716 2.191 3.619.906 7.526.905 6.287.001 9.717-2.191t3.43-6.479q0-2.572-1.286-4.288-1.285-1.716-3.667-3.001-2.382-1.286-5.813-2.334a199 199 0 0 0-7.813-2.191q-5.052-1.334-8.81-2.81-3.766-1.476-6.24-3.572c-1.652-1.395-2.907-3.033-3.764-4.906q-1.287-2.812-1.287-6.813 0-4.953 1.905-8.813 1.906-3.857 5.193-6.479 3.288-2.616 7.765-3.953 4.478-1.334 9.719-1.334 6.858 0 12.672 2.191 5.811 2.192 10.193 5.432z"/><path fill="#C7C7C7" d="M1044.58 340.413H556.686v-12.865h473.494zM1026.39 324.164H556.686v-2.562h466.844zM1052.81 347.761H556.686v-2.562h493.264zM1100.31 444.156H556.684v12.852h543.626zM1100.31 438.229H556.684v2.539h543.626zM1100.31 461.826H556.684v2.539h543.626zM652.372 360.633h-95.69v67.646h95.69zM1100.31 390.174v38.091h-95.69v-67.619h62.63z"/><path fill="#44B2AB" d="M715.984 681.58h225.032V508.675H715.984z"/><path fill="#000" d="M740.163 549.201a20.078 20.078 0 0 0 23.596 23.596c7.89-1.496 14.253-7.858 15.748-15.748a20.078 20.078 0 0 0-23.596-23.595c-7.89 1.494-14.253 7.859-15.748 15.747M778.38 645.077h162.635l-81.317-91.189z" opacity=".2"/><path fill="#44B2AB" d="M715.981 645.157h134.274l-67.137-59.38z"/><path fill="#000" d="M715.981 645.157h134.274l-67.137-59.38z" opacity=".3"/><path fill="#44B2AB" d="M941.014 645.077H715.981v36.505h225.033z"/><path fill="#000" d="M941.014 645.077H715.981v36.505h225.033z" opacity=".3"/><path fill="#A6A6A6" d="M896.139 480.06H715.981v6.03h180.158zM844.858 493.137H715.981v6.031h128.877zM690.207 480.16H556.684v6.031h133.523z"/><path fill="#DBDBDB" d="M690.103 508.648H556.58v6.031h133.523zM690.103 519.891H556.58v6.031h133.523zM690.103 531.136H556.58v6.03h133.523zM690.103 542.38H556.58v6.031h133.523zM690.103 553.623H556.58v6.03h133.523zM690.103 564.867H556.58v6.031h133.523zM690.103 576.11H556.58v6.03h133.523zM690.103 587.354H556.58v6.031h133.523zM634.77 598.598h-78.19v6.031h78.19zM690.103 621.086H556.58v6.031h133.523zM690.103 632.329H556.58v6.031h133.523zM690.103 643.573H556.58v6.031h133.523zM690.103 654.816H556.58v6.031h133.523zM634.77 666.06h-78.19v6.031h78.19z"/><path fill="#A6A6A6" d="M652.201 493.237h-95.517v6.031h95.517zM1100.31 480.16H966.791v6.031h133.519z"/><path fill="#DBDBDB" d="M1100.21 508.648H966.687v6.031h133.523zM1100.21 519.891H966.687v6.031h133.523zM1100.21 531.136H966.687v6.03h133.523zM1045.42 542.38h-78.733v6.031h78.733zM1100.21 564.867H966.687v6.031h133.523zM1100.21 576.11H966.687v6.03h133.523zM1100.21 587.354H966.687v6.031h133.523zM1100.21 598.598H966.687v6.031h133.523zM1045.42 609.842h-78.733v6.031h78.733zM1100.21 632.329H966.687v6.031h133.523zM1100.21 643.573H966.687v6.031h133.523zM1100.21 654.816H966.687v6.031h133.523zM1100.21 666.06H966.687v6.031h133.523zM1045.42 677.303h-78.733v6.031h78.733z"/><path fill="#A6A6A6" d="M1062.31 493.237h-95.519v6.031h95.519zM690.207 700.579H556.684v6.031h133.523z"/><path fill="#DBDBDB" d="M690.103 729.068H556.58v6.03h133.523zM690.103 740.31H556.58v6.031h133.523zM690.103 751.555H556.58v6.03h133.523zM690.103 762.798H556.58v6.03h133.523z"/><path fill="#A6A6A6" d="M652.201 713.657h-95.517v6.031h95.517zM941.015 700.579H716.479v6.031h224.536z"/><path fill="#DBDBDB" d="M940.841 729.068H716.305v6.03h224.536zM940.841 740.31H716.305v6.031h224.536zM940.841 751.555H716.305v6.03h224.536zM940.841 762.798H716.305v6.03h224.536z"/><path fill="#A6A6A6" d="M877.103 713.657H716.479v6.031h160.624zM1100.31 700.579H966.791v6.031h133.519z"/><path fill="#DBDBDB" d="M1100.21 729.068H966.687v6.03h133.523zM1100.21 740.31H966.687v6.031h133.523zM1100.21 751.555H966.687v6.03h133.523zM1045.42 762.798h-78.733v6.03h78.733z"/><path fill="#A6A6A6" d="M1062.31 713.657h-95.519v6.031h95.519z"/><path fill="#DBDBDB" d="m997.094 298 3.306 116.652 126.6-.635z"/><path fill="#44B2AB" d="M1029.23 739.639s-24.51-5.556-37.941-17.932c-13.433-12.376-20.937-34.548-20.937-34.548s14.425 2.642 27.485 7.219c2.193 2.346 6.373 7.18 8.313 11.757 0 0 .42-4.834.07-8.405 3.49 1.611 6.53 3.39 8.72 5.299 11.14 9.745 14.29 36.61 14.29 36.61"/><path fill="#263238" d="M985.655 697.935c-3.341-2.312-6.742-4.541-10.068-6.873-.2-.14-.012-.455.202-.327a305 305 0 0 1 18.564 12.025 178 178 0 0 1 6.197 4.566l-.42-.726c-.739-1.231-1.515-2.438-2.29-3.644-1.559-2.425-3.261-4.811-5.202-6.945-.072-.08.051-.195.12-.115 1.906 2.199 3.811 4.378 5.555 6.713a49 49 0 0 1 2.327 3.434c.38.61.75 1.224 1.1 1.851.12.21.25.419.37.633 3.17 2.488 6.26 5.082 9.2 7.827 1.82 1.693 3.57 3.449 5.27 5.259-.95-2.965-1.78-5.964-2.88-8.885-.04-.1.13-.142.16-.04 1.07 3.062 2.24 6.14 3.06 9.287a92 92 0 0 1 5.37 6.318l-.09-.399c-.28-1.156-.57-2.308-.88-3.455a107 107 0 0 0-1.99-6.592c-1.54-4.453-3.53-8.811-6.59-12.434-.07-.082.05-.198.12-.116 4.79 5.667 7.6 12.462 9.39 19.599q.39 1.567.75 3.141c.12.556.27 1.123.36 1.695.74.999 1.47 2.011 2.17 3.047 4.25 6.332 7.57 13.252 10.37 20.335 3.15 7.978 5.59 16.216 7.85 24.485.04.162-.2.219-.25.064-4.79-14.34-9.69-28.885-17.89-41.705a99 99 0 0 0-5.6-7.83c-4.03-.226-8.1-1.101-11.92-2.374-4.22-1.406-8.203-3.357-11.94-5.767-2.158-1.393-4.123-3.017-6.121-4.625-.093-.075.01-.206.104-.128 3.314 2.803 7.297 4.999 11.237 6.797a61 61 0 0 0 12.36 4.148c1.81.395 3.64.686 5.48.935a104 104 0 0 0-7.23-8.005c-.82-.826-1.68-1.616-2.53-2.414-2.82-2.055-5.94-3.677-9.06-5.188-4.016-1.941-7.969-3.996-11.943-6.019-2.242-1.14-4.471-2.308-6.731-3.412-.097-.048-.007-.188.088-.142 4.027 1.946 8.118 3.763 12.184 5.626 3.826 1.753 7.702 3.512 11.372 5.575.16.089.3.185.46.276a190 190 0 0 0-10.27-8.3 292 292 0 0 0-9.895-7.176"/><path fill="#263238" d="M987.05 710.57c1.993.873 4.022 1.648 5.995 2.569 2.029.949 3.951 2.06 5.877 3.2.084.051.006.169-.079.128-1.953-.935-3.933-1.81-5.869-2.784-1.981-.997-3.94-2.063-5.974-2.953-.097-.043-.049-.203.05-.16"/><path fill="#44B2AB" d="M1108.84 616.138s-6.88 7.879-7.33 20.354c-.08 2.198.27 5.259.52 8.862-9.13 4.878-15.99 13.668-15.99 13.668 5.19-3.118 12.32-4.378 16.16-3.87-.13 2.37-.41 4.83-.93 7.324-1.7-.097-4.98.129-10.4 2.056 0 0 5.32-.135 9.37 1.863-4.36 13.898-17.35 28.174-53.21 34.238 0 0-6.91-24.344 6.36-50.459 10.74-21.134 55.45-34.036 55.45-34.036"/><path fill="#263238" d="M1034.62 760.101c.63-5.936 1.41-11.858 2.33-17.758 1.83-11.804 4.21-23.539 7.23-35.099 1.42-5.452 3.13-10.791 5.17-15.993-.13-.943-.11-1.925-.13-2.87-.02-1.147-.03-2.296-.02-3.444q.045-3.445.33-6.878c.39-4.52 1.08-9.047 2.21-13.444.65-2.554 1.41-5.069 2.16-7.597.03-.103.19-.056.16.048-1.26 4.371-1.99 8.919-2.64 13.418-.65 4.457-1.05 8.957-1.21 13.456-.04 1.233-.07 2.467-.07 3.699 0 .522.02 1.052.04 1.583 1.77-4.267 3.76-8.444 6.04-12.505 3.62-6.424 7.77-12.528 12.28-18.36-.04-.666.16-1.367.29-2.006.17-.801.34-1.601.52-2.4q.555-2.458 1.23-4.886c.89-3.249 2.06-6.39 3.08-9.597.03-.102.19-.056.16.047-.95 3.177-1.58 6.466-2.3 9.699-.36 1.599-.71 3.199-1.06 4.8q-.27 1.2-.51 2.403c-.02.057-.03.12-.04.179q2.175-2.745 4.44-5.407c6.85-8.029 14.36-15.437 21.91-22.791.93-.904 1.88-1.785 2.83-2.676.07-.074.19.043.11.12-7.22 7.533-14.33 15.152-21.06 23.129-1.6 1.894-3.18 3.814-4.73 5.755.82-.552 1.64-1.089 2.45-1.619 2.09-1.367 4.2-2.695 6.37-3.913 2.18-1.22 4.37-2.411 6.61-3.518 2.3-1.14 4.76-2.068 6.97-3.359.1-.055.18.107.08.147-2.28.938-4.42 2.367-6.54 3.624-2.18 1.294-4.36 2.598-6.5 3.958-2.11 1.337-4.23 2.654-6.32 4.014-1.75 1.132-3.46 2.371-5.27 3.418-4.14 5.358-8.03 10.908-11.49 16.72a124 124 0 0 0-5.94 11.261q.645-.278 1.29-.558c1.09-.486 2.19-.972 3.28-1.457 2.11-.936 4.23-1.848 6.35-2.77 4.02-1.748 8.1-3.355 12.05-5.274 2.21-1.075 4.38-2.211 6.43-3.575.09-.06.17.086.08.146-7.35 5.068-15.59 8.639-23.73 12.239l-3.53 1.562c-.97.428-1.94.909-2.94 1.283a125 125 0 0 0-6.06 16.617c-3.27 11.388-5.75 23.023-7.8 34.688-2.06 11.712-3.45 23.502-4.52 35.34-.14 1.479-.27 2.955-.44 4.429-.06.589-.94.589-.93-.023.06-6.011.68-12.031 1.3-18.005"/><path fill="#263238" d="M1056.44 661.078c.66-3.646 1.63-7.209 2.61-10.779.03-.103.19-.055.16.048-.91 3.503-1.56 7.074-2.22 10.629-.67 3.623-1.26 7.265-1.77 10.914-.01.062-.1.064-.1-.003.24-3.627.67-7.229 1.32-10.809M1071.89 670.965c2.43-1.721 5.16-3.024 7.8-4.389 1.31-.676 2.63-1.317 3.95-1.958 1.37-.661 2.79-1.214 4.14-1.893.1-.048.18.097.08.146-1.31.658-2.55 1.455-3.84 2.157-1.33.724-2.65 1.462-3.99 2.177-2.62 1.408-5.19 2.97-7.95 4.111-.23.099-.4-.202-.19-.351"/><path fill="#263238" d="M1028.78 697.188s-22.68-5.416-33.089-20.63c-9.943-14.528-13.156-39.292-13.412-41.47.408 1.998 5.088 23.643 20.531 33.723 11.82 7.726 23.24 14.075 25.97 28.377" opacity=".1"/><path fill="#263238" d="M1007.85 658.007c3.99 3.843 6.98 8.363 8.36 13.77.01.046-.05.07-.07.024-1.7-5.035-4.51-9.997-8.4-13.67-.08-.074.03-.2.11-.124"/><path fill="#44B2AB" d="M1028.78 697.188s-22.68-5.417-33.089-20.63c-9.943-14.528-13.157-39.292-13.412-41.47-.022-.102-.025-.153-.025-.153s10.873 15.46 22.306 19.402c11.43 3.942 27.5 17.581 24.22 42.851"/><path fill="#263238" d="M986.273 643.462c2.103 4.124 4.309 8.218 7.011 11.988 2.631 3.67 5.8 6.794 9.326 9.598 3.08 2.448 6.34 4.663 9.46 7.061-.03-.037-.05-.077-.07-.112a45 45 0 0 0-1.86-2.539c-1.3-1.659-2.72-3.225-4.15-4.773-2.81-3.058-5.69-6.058-8.216-9.366a34.8 34.8 0 0 1-3.637-5.857c-.046-.096.113-.15.159-.054 3.677 7.664 11.024 12.567 16.264 19.041.75.922 1.45 1.872 2.1 2.867.45.701 1.01 1.482 1.3 2.305 2.85 2.337 5.49 4.883 7.74 7.821-.19-1.489-.52-2.974-.91-4.403-.57-2.03-1.3-3.939-2.41-5.743-.05-.091.09-.185.14-.092 1.06 1.79 2.03 3.715 2.65 5.705.5 1.616.73 3.237.82 4.898.01.004.01.009.02.015 1.13 1.519 2.13 3.119 3.06 4.765-.09-.484-.19-.969-.28-1.453-.45-2.26-.95-4.514-1.54-6.741-1.19-4.518-2.79-8.901-5.45-12.777-.06-.089.08-.181.14-.092 2.62 3.823 4.61 8.094 6.04 12.499.72 2.225 1.3 4.489 1.81 6.771.25 1.115.47 2.235.69 3.358.11.58.24 1.174.33 1.771 2.32 4.899 3.95 10.152 5.23 15.372 2.31 9.399 3.76 19.063 4.84 28.673 1.13 10.09 1.72 20.29 1.56 30.445-.02 1.275-.1 2.548-.17 3.822-.02.328-.51.376-.52.029-.22-5.031-.36-10.067-.65-15.095-.3-5.034-.74-10.053-1.28-15.065-1.05-9.836-2.58-19.658-4.72-29.318-1.84-8.291-4.23-16.635-8.76-23.9a45 45 0 0 0-8.18-9.73c-3.18-2.852-6.65-5.354-10.01-7.998-3.33-2.629-6.537-5.491-9.181-8.828-2.853-3.6-5.099-7.639-7.212-11.704-.535-1.029-1.083-2.049-1.625-3.073-.048-.094.092-.187.141-.091"/><path fill="#263238" d="M990.187 646.788c1.455 3.068 3.204 5.988 5.053 8.833.045.067-.059.135-.105.069-1.975-2.787-3.62-5.778-5.105-8.85-.048-.095.111-.149.157-.052"/><path fill="#44B2AB" d="M1112 687.158s.36 32.226-18.91 41.529c-19.27 9.315-29.6 1.553-42.69 4.671 0 0 .01-.002.02-.017.51-.769 9.85-14.2 24.72-17.899 15.28-3.811 32.22-14.856 36.86-28.284"/><path fill="#000" d="M1112 687.158s.36 32.226-18.91 41.529c-19.27 9.315-29.6 1.553-42.69 4.671 0 0 .01-.002.02-.017.54-.264 10.1-5.047 21.91-6.462 12.15-1.462 35.36-9.38 39.67-39.721" opacity=".1"/><path fill="#263238" d="M1049.13 733.932c2.3-2.07 4.87-3.852 7.66-5.189.42-.198.84-.359 1.26-.536.2-.258.42-.503.65-.74a26.788 26.788 0 0 1 5.69-4.518c3.19-1.876 6.69-3.189 9.95-4.934.1-.051.18.097.08.146-1.61.838-3.17 1.763-4.74 2.679-1.53.892-3.09 1.741-4.58 2.701a33 33 0 0 0-3.81 2.857c-.34.297-.66.619-.99.946 2.13-.727 4.31-1.285 6.51-1.73 3.53-.713 7.1-1.217 10.62-1.969 1.73-.369 3.43-.828 5.11-1.38 1.6-1.286 3.19-2.566 4.71-3.962 1.83-1.685 3.51-3.518 4.98-5.524.06-.086.21.003.14.088-2.38 3.068-4.93 6.162-7.9 8.717a46 46 0 0 0 2.47-1.021c6.54-2.975 12.37-7.699 16.42-13.661.06-.088.2-.001.14.088-3.53 5.107-8.01 9.478-13.29 12.752-2.64 1.64-5.43 2.984-8.39 3.973-3.4 1.135-6.92 1.807-10.43 2.464-3.44.644-6.89 1.302-10.21 2.43a30.7 30.7 0 0 0-8.56 4.505c-4.96 3.716-8.8 8.798-11.55 14.319-3.65 7.317-5.39 15.494-6.36 23.562-.04.346-.57.346-.55-.013.9-13.547 4.53-27.644 14.97-37.05"/><path fill="#263238" d="M1071.49 723.424c.96-1.538 2.4-2.692 3.96-3.591 1.82-1.052 3.45-2.186 4.71-3.899.06-.086.21.003.14.088-1.16 1.496-2.56 2.722-4.16 3.726-1.68 1.055-3.38 2.089-4.53 3.75-.05.075-.17.004-.12-.074"/><path fill="#37474F" d="m1061.27 757.717-.88 17.721-2.69 54.142h-40.42l-2.69-54.142-.88-17.721z"/><path fill="#263238" d="m1061.27 757.717-.88 17.721h-45.8l-.88-17.721z"/><path fill="#37474F" d="M1064.1 750.319h-53.22v16.905h53.22z"/><path fill="#C7C7C7" d="m620.746 689.505-12.662-11.4 66.526-73.893 12.662 11.399z"/><path fill="#263238" d="M590.148 730.006 571 712.767l46.458-51.602h.002l19.146 17.239z"/><path fill="#37474F" d="M744.613 632.042c41.997-8.283 69.426-49.188 61.145-91.187-8.283-41.997-49.188-69.428-91.187-61.145-41.997 8.282-69.428 49.188-61.145 91.187 8.282 41.997 49.188 69.426 91.187 61.145m-1.722-8.732c-37.183 7.333-73.399-16.952-80.733-54.135-7.333-37.184 16.952-73.4 54.136-80.734 37.183-7.332 73.399 16.953 80.731 54.136 7.333 37.184-16.951 73.401-54.134 80.733"/><path fill="#37474F" d="M651.937 536.794c-2.767 11.185-3.07 22.924-.778 34.549 4.125 20.918 16.174 38.994 33.93 50.9 17.755 11.906 39.053 16.19 59.971 12.064 20.916-4.125 38.993-16.174 50.899-33.929 11.906-17.754 16.192-39.052 12.065-59.971-8.53-43.247-50.652-71.494-93.9-62.965-20.917 4.126-38.994 16.177-50.901 33.93-5.286 7.889-9.074 16.48-11.286 25.422m150.82 37.056c-2.084 8.427-5.65 16.519-10.637 23.954-11.217 16.73-28.248 28.083-47.955 31.97-19.706 3.886-39.773-.151-56.502-11.369-16.731-11.217-28.084-28.25-31.971-47.957-2.195-11.131-1.804-22.191.757-32.542 6.805-27.535 28.954-50.089 58.569-55.93 40.748-8.035 80.434 18.578 88.471 59.326 2.159 10.949 1.873 22.011-.732 32.548m-142.175-34.932c-2.459 9.942-2.729 20.373-.692 30.705 7.579 38.432 45.012 63.534 83.446 55.955 18.588-3.667 34.654-14.374 45.232-30.153 10.58-15.78 14.388-34.705 10.723-53.295-3.666-18.588-14.374-34.652-30.153-45.232s-34.704-14.388-53.294-10.721-34.654 14.374-45.233 30.152c-4.698 7.008-8.064 14.642-10.029 22.589m81.862 82.125c-35.934 7.086-70.933-16.383-78.019-52.317-3.427-17.378.134-35.071 10.027-49.826 9.893-14.753 24.912-24.765 42.29-28.191 17.377-3.428 35.072.134 49.825 10.026 14.753 9.893 24.766 24.911 28.192 42.29 3.428 17.38-.134 35.075-10.027 49.826-9.892 14.753-24.912 24.766-42.288 28.192"/><g opacity=".2"><path fill="#fff" d="M795.542 552.42c1.91 36.418-26.065 67.504-62.496 69.414-36.418 1.91-67.506-26.078-69.414-62.496-1.912-36.431 26.077-67.517 62.496-69.428 36.43-1.911 67.502 26.079 69.414 62.51"/><path fill="#EBEBEB" d="M793.883 571.037c-6.544 27.851-30.818 49.234-60.842 50.799A66 66 0 0 1 715 620.311zM774.341 507.307l-108.039 67.487c-1.479-4.92-2.38-10.1-2.67-15.455a65 65 0 0 1 1.505-17.897l79.763-49.835a66 66 0 0 1 29.441 15.7M794.863 545.866 691.95 610.15a67 67 0 0 1-9.872-8.398L791.662 533.3a64 64 0 0 1 3.201 12.566M780.547 513.877l-111.067 69.39a64 64 0 0 1-.964-2.199l110.476-69.008a32 32 0 0 1 1.555 1.817M722.816 490.17l-49.299 30.793a64 64 0 0 1 3.364-4.891l40.095-25.044a63 63 0 0 1 5.84-.858"/></g><path fill="#fff" d="M742.828 607.535c7.049-1.467 13.714-4.708 19.67-8.927 3.002-2.097 5.735-4.577 8.284-7.24 2.516-2.699 4.737-5.677 6.7-8.816 3.812-6.355 6.264-13.524 7.099-20.809.84-7.284.284-14.632-1.605-21.554-.02 7.174-.517 14.197-1.951 20.961-.818 3.354-1.639 6.695-2.981 9.848-1.248 3.175-2.682 6.285-4.514 9.164-3.5 5.851-8.052 11.064-13.257 15.627a88.6 88.6 0 0 1-17.445 11.746"/><g opacity=".5"><path fill="#A2E4DE" d="m158.917 600.924 72.087-11.016c6.043 39.546-21.526 77.06-61.072 83.102s-77.06-21.526-83.1-61.072c-6.044-39.546 21.525-77.06 61.071-83.102a73 73 0 0 1 19.022-.395z"/><path fill="#44B2AB" d="m182.307 528.672-8.753 55.88 54.852-10.3s-8.066-31.318-46.099-45.58"/></g><path fill="#fff" d="M327.262 486.232h124.931v142.579H327.262z"/><path fill="#263238" d="M327.263 628.811s.007-.232.012-.677l.012-1.982.024-7.695.054-29.091.103-103.133-.205.206 124.917.027h.013l-.233-.233.036 142.578.197-.196-90.614.101c-10.919.023-19.488.04-25.335.051-2.921.01-5.16.018-6.678.022-1.512.008-2.303.022-2.303.022s.761.015 2.261.023l6.64.022 25.29.05 90.738.102h.196v-.198l.036-142.578V486h-.245l-124.917.027h-.206v.205l.103 103.266.055 29.045.024 7.655q.007 1.288.012 1.959c.005.438.013.654.013.654"/><path fill="#44B2AB" d="M436.867 559.035c-.041.085-1.384-.693-4.017-1.527a25.86 25.86 0 0 0-11.521-.855c-2.418.388-5.039 1.12-7.599 2.443-2.577 1.291-5.032 3.206-7.471 5.373-2.45 2.162-4.882 4.617-7.687 6.886-2.806 2.232-6.025 4.345-9.812 5.31-1.879.484-3.848.61-5.728.345-1.885-.257-3.665-.873-5.308-1.639-3.291-1.55-6.105-3.588-8.892-5.287-2.767-1.733-5.549-3.108-8.363-3.749a24.8 24.8 0 0 0-7.955-.61 25.6 25.6 0 0 0-10.98 3.575c-2.357 1.439-3.468 2.523-3.531 2.448-.02-.022.255-.291.798-.785.534-.503 1.387-1.181 2.556-1.945a25.05 25.05 0 0 1 19.278-3.372c2.905.628 5.81 2.036 8.608 3.765 2.824 1.7 5.639 3.711 8.833 5.2 3.16 1.523 6.879 2.2 10.476 1.226 3.598-.913 6.737-2.951 9.497-5.135 2.76-2.218 5.203-4.658 7.69-6.824 2.476-2.171 5.001-4.111 7.672-5.415 2.65-1.334 5.35-2.05 7.831-2.407 5.005-.678 9.095.218 11.711 1.136 1.322.457 2.305.924 2.951 1.27.646.35.976.547.963.573M367.684 578.184h-10.621v28.724h10.621zM412.753 578.184h-10.621v28.724h10.621z"/><path fill="#44B2AB" d="M427.776 561.315h-10.621v45.594h10.621zM353.94 597.866h-10.621v9.668h10.621zM382.707 591.155h-10.621v15.753h10.621zM397.73 587.539h-10.621v19.37h10.621z"/><path fill="#263238" d="M368.112 610.294c0 .236-2.569.427-5.737.427-3.17 0-5.739-.191-5.739-.427s2.569-.427 5.739-.427c3.168.001 5.737.191 5.737.427M354.896 610.294c0 .235-2.57.427-5.739.427s-5.738-.191-5.738-.427 2.568-.427 5.738-.427c3.169.001 5.739.191 5.739.427M429.869 610.294c0 .236-2.904.427-6.486.427-3.583 0-6.487-.191-6.487-.427s2.904-.427 6.487-.427c3.581.001 6.486.191 6.486.427M414.091 610.294c0 .236-2.904.427-6.487.427s-6.486-.191-6.486-.427 2.903-.427 6.486-.427c3.583.001 6.487.191 6.487.427M397.73 610.294c0 .236-2.569.428-5.738.428s-5.738-.192-5.738-.428c0-.235 2.568-.427 5.738-.427 3.168 0 5.738.192 5.738.427M382.208 610.294c0 .236-2.569.428-5.738.428s-5.739-.192-5.739-.428c0-.235 2.57-.427 5.739-.427s5.738.192 5.738.427"/><path fill="#E0E0E0" d="M431.801 507.018h-86.8v36.048h86.8z"/><path fill="#263238" d="M363.035 518.411a4.047 4.047 0 1 1-8.094 0 4.047 4.047 0 0 1 8.094 0M395.276 515.616h-28.195v1.565h28.195z"/><path fill="#fff" d="M421.929 519.174h-54.848v1.565h54.848z"/><path fill="#44B2AB" d="M363.035 530.852a4.046 4.046 0 1 1-8.093 0 4.046 4.046 0 0 1 8.093 0M381.478 528.056h-14.397v1.566h14.397z"/><path fill="#fff" d="M421.929 531.614h-54.848v1.565h54.848zM384.477 664.975l.903 104.993-74.982.645-.903-104.993z"/><path fill="#263238" d="M385.395 769.987s.008-.16.009-.486v-1.456l-.024-5.689-.126-21.52-.543-75.842-.002-.218-.218.002-74.971.622h-.009l-.239.002.001.24.948 104.988.001.196.195-.002 54.626-.571 15.079-.18 3.939-.055c.889-.014 1.334-.031 1.334-.031s-.474-.011-1.375-.01c-.909.003-2.24.008-3.976.012-3.488.019-8.595.045-15.124.081l-54.506.366.197.192-.857-104.989-.238.243h.008l74.971-.666-.219-.216.758 75.697.243 21.567.076 5.733.026 1.48c.006.333.016.51.016.51"/><path fill="#263238" d="M374.927 690.576c-.002-.242-12.418-.331-27.729-.199-15.317.131-27.727.433-27.725.675.002.241 12.416.33 27.732.199 15.311-.131 27.724-.434 27.722-.675M374.991 697.989c-.002-.241-12.419-.331-27.73-.199-15.316.132-27.726.434-27.724.676s12.415.331 27.732.199c15.311-.132 27.724-.434 27.722-.676M375.055 705.403c-.002-.241-12.419-.331-27.73-.199-15.316.131-27.727.434-27.725.675s12.416.331 27.732.2c15.311-.132 27.724-.435 27.723-.676M375.118 712.817c-.002-.242-12.418-.331-27.729-.199-15.317.132-27.727.433-27.725.675.002.241 12.416.331 27.732.199 15.311-.131 27.724-.433 27.722-.675M375.182 720.23c-.002-.242-12.419-.331-27.73-.199-15.316.132-27.726.433-27.724.676.001.241 12.415.33 27.732.199 15.311-.132 27.724-.435 27.722-.676"/><path fill="#455A64" d="M338.593 728.837h-8.923v27.87h8.923zM351.917 735.203h-8.923v21.504h8.923zM364.252 743.937h-8.923v12.77h8.923z"/><path fill="#263238" d="M537.98 647.055c0-.008-.201-.017-.595-.025l-1.749-.024-6.724-.045-24.732-.077-81.596-.07-72.916.055h-.432l.002.185.188 13.438c.049 1.566.087 2.8.116 3.679l.061.959q.031.326.063.327.033 0 .063-.327l.062-.959.116-3.679.187-13.438-.428.185 72.916.055 81.596-.07 24.732-.077 6.724-.045 1.749-.024q.595-.01.597-.023M452.208 510.554c0 .015.538.03 1.573.044l4.529.041 16.8.071 56.688.079-.646-.237c-.041 1.538-.081 3.154-.121 4.797-.21 9.309-.248 17.737-.12 23.837.073 3.05.183 5.518.343 7.224.085.854.178 1.515.278 1.964.131.449.223.682.266.681 0 0-.095-3.769.035-9.869l.501-23.834c.038-1.642.073-3.257.108-4.796l.005-.237h-.652l-56.687.08-16.8.071-4.529.041c-1.033.013-1.571.028-1.571.043"/><path fill="#263238" d="M450.058 510.238a2.367 2.367 0 1 0 4.735 0 2.367 2.367 0 0 0-4.735 0M347.056 665.459a2.367 2.367 0 1 0 4.733 0 2.367 2.367 0 0 0-4.733 0"/></svg>